<?xml version="1.0" encoding="utf-8"?>


<!-- License: CC Attribution. Made by wishforge.games: https://www.wishforge.games/ -->
<svg fill="#0f1729" height="800px" width="800px" version="1.1" id="Icons" xmlns="http://www.w3.org/2000/svg" xmlns:xlink="http://www.w3.org/1999/xlink" 
	 viewBox="0 0 32 32" xml:space="preserve">
<path d="M16,2C8.3,2,2,8.3,2,16s6.3,14,14,14s14-6.3,14-14S23.7,2,16,2z M19,12c0-0.6,0.4-1,1-1s1,0.4,1,1v4c0,0.6-0.4,1-1,1
	s-1-0.4-1-1V12z M11,12c0-0.6,0.4-1,1-1s1,0.4,1,1v4c0,0.6-0.4,1-1,1s-1-0.4-1-1V12z M22,21.7c-0.2,0.2-0.5,0.3-0.8,0.3
	c-0.2,0-0.5-0.1-0.7-0.2C19.3,20.6,17.7,20,16,20s-3.3,0.6-4.6,1.8c-0.4,0.4-1,0.3-1.4-0.1c-0.4-0.4-0.3-1,0.1-1.4
	c1.6-1.5,3.8-2.2,5.9-2.2s4.3,0.8,5.9,2.2C22.4,20.6,22.4,21.2,22,21.7z"/>
</svg>